<?xml version="1.0" standalone="no"?>
<!DOCTYPE svg PUBLIC "-//W3C//DTD SVG 20010904//EN"
 "http://www.w3.org/TR/2001/REC-SVG-20010904/DTD/svg10.dtd">
<svg version="1.0" xmlns="http://www.w3.org/2000/svg"
 width="512.000000pt" height="512.000000pt" viewBox="0 0 512.000000 512.000000"
 preserveAspectRatio="xMidYMid meet">
<metadata>
Created by potrace 1.11, written by Peter Selinger 2001-2013
</metadata>
<g transform="translate(0.000000,512.000000) scale(0.100000,-0.100000)"
fill="#000000" stroke="none">
<path d="M1924 5076 l-34 -34 0 -99 c0 -108 9 -132 60 -158 16 -8 47 -15 70
-15 l40 0 0 -829 0 -828 -82 -33 c-426 -167 -768 -527 -922 -969 -67 -191 -80
-279 -80 -516 0 -179 3 -225 22 -311 138 -633 607 -1105 1239 -1246 85 -19
128 -22 323 -22 194 0 238 3 322 21 135 31 235 65 365 128 450 215 766 620
875 1119 19 86 22 132 22 311 0 179 -3 225 -22 311 -94 432 -343 795 -707
1033 -86 57 -219 123 -300 151 l-50 17 -3 831 -2 832 40 0 c23 0 54 7 69 14
50 26 61 55 61 162 0 96 0 96 -34 130 l-34 34 -602 0 -602 0 -34 -34z m906
-1201 c5 -819 6 -893 22 -917 13 -20 41 -34 115 -59 223 -73 392 -177 554
-338 162 -163 269 -338 338 -554 50 -158 64 -266 57 -457 -3 -91 -8 -177 -12
-193 l-6 -27 -1339 0 -1338 0 -8 48 c-4 26 -8 135 -7 242 1 185 2 201 32 310
17 63 46 153 66 199 151 358 471 651 834 765 106 33 118 40 137 76 13 25 15
144 15 908 0 483 3 882 7 885 4 4 124 6 267 5 l261 -3 5 -890z"/>
</g>
</svg>
